<?xml version="1.0" encoding="UTF-8"?>
<svg version="1.1" viewBox="0 0 1024 1024" width="1280" height="1280" xmlns="http://www.w3.org/2000/svg">
<path transform="translate(493,188)" d="m0 0h38l29 3 30 6 24 7 24 9 18 8 22 12 21 14 12 9 10 8 12 11 10 9 14 15 11 14 10 13 14 22 11 20 10 23 9 25 7 27 4 21 3 29v38l-3 29-6 30-8 27-8 21-8 18-12 22-14 21-9 12-8 10-11 12-9 10-15 14-14 11-13 10-22 14-22 12-21 9-25 9-27 7-21 4-29 3h-38l-29-3-30-6-24-7-24-9-18-8-22-12-21-14-12-9-10-8-12-11-10-9-14-15-11-14-10-13-11-17-10-18-8-16-8-19-9-27-6-25-4-24-2-21v-38l3-29 6-30 7-24 9-24 8-18 12-22 16-24 14-18 12-13 9-10 15-14 14-11 13-10 22-14 20-11 23-10 25-9 27-7 21-4z" fill="#FDCC30"/>
<path transform="translate(806,716)" d="m0 0h2l13 30 30 70 13 30 11 26-2 1-35-15-114-49-6-3 1-3 16-12 13-11 12-11 17-17 9-11 11-13z" fill="#FDCC30"/>
<path transform="translate(149,151)" d="m0 0 9 3 42 18 100 43 6 3-1 3-16 12-13 11-12 11-17 17-9 11-11 13-9 12h-2l-13-30-30-70-13-30-11-26z" fill="#FDCC30"/>
<path transform="translate(218,718)" d="m0 0 3 1 12 16 11 13 11 12 17 17 11 9 13 11 12 9v2l-30 13-100 43-26 11-1-2 15-35 19-44 30-70z" fill="#FDCC30"/>
<path transform="translate(316,40)" d="m0 0 7 6 12 13 30 30 7 8 25 25 7 8 28 28v2h2v3l-25 7-20 7-24 10-23 11-22 13h-3l-1-101z" fill="#FEE62E"/>
<path transform="translate(914,316)" d="m0 0h70l-6 7-13 12-30 30-8 7-24 24-8 7-29 29h-2v2h-3l-7-24-7-21-10-24-15-30-9-15v-2l11-1z" fill="#FEE62E"/>
<path transform="translate(872,149)" d="m0 0 1 2-15 35-19 44-30 70-3 6-3-1-12-16-11-13-11-12-22-22-11-9-13-11-6-4 3-3 41-18 106-46z" fill="#FDCC30"/>
<path transform="translate(317,813)" d="m0 0 4 1 15 9 22 12 23 10 16 6 28 8 10 2-1 3h-2l-2 4-33 33-7 8-24 24-7 8-32 32-7 8-4 3v-70z" fill="#FEE62E"/>
<path transform="translate(704,813)" d="m0 0h3l1 102v69l-7-6-12-13-30-30-7-8-25-25-7-8-28-28v-2h-2l-1-3 25-6 24-8 19-8 19-9 21-12z" fill="#FEE62E"/>
<path transform="translate(162,589)" d="m0 0h1l6 25 8 24 8 19 9 19 12 21 5 7v3l-102 1h-69l6-7 13-12 30-30 8-7 25-25 8-7 28-28h2v-2z" fill="#FEE62E"/>
<path transform="translate(707,40)" d="m0 0h1v69l-1 102-4-1-20-12-21-11-19-8-16-6-24-7-14-3 1-3h2l2-4 32-32 7-8 25-25 7-8 32-32 7-8z" fill="#FEE62E"/>
<path transform="translate(861,589)" d="m0 0 3 1v2l4 2 33 33 8 7 25 25 8 7 31 31 8 7 3 4h-69l-102-1 1-4 12-20 11-21 8-19 6-16 7-24z" fill="#FEE62E"/>
<path transform="translate(40,316)" d="m0 0h70l90 1 11 1-2 5-10 16-12 23-8 19-7 19-7 25-2 9h-3v-2l-4-2-32-32-8-7-25-25-8-7-32-32-8-7z" fill="#FEE62E"/>
<path transform="translate(511,2)" d="m0 0h2l12 30 18 46 32 81v1l-10-1-20-3-14-1h-34l-28 3-13 2h-7l9-24 32-81 20-51z" fill="#FDCC30"/>
<path transform="translate(864,449)" d="m0 0 29 11 127 50 2 1v2l-30 12-127 50h-1l1-10 3-20 1-13v-35l-3-28-2-13z" fill="#FDCC30"/>
<path transform="translate(159,449)" d="m0 0h1l-1 9-3 21-1 13v40l2 22 3 16v5l-29-11-127-50-2-1v-2l30-12 94-37z" fill="#FDCC30"/>
<path transform="translate(449,864)" d="m0 0 10 1 20 3 11 1h44l26-3 10-2h5l-11 29-15 38-17 43-18 46-1 2h-2l-12-30-20-51-17-43-13-33z" fill="#FDCC30"/>
</svg>
